<?xml version="1.0"?>
<svg xmlns="http://www.w3.org/2000/svg" xmlns:xlink="http://www.w3.org/1999/xlink" version="1.1" id="Layer_1" x="0px" y="0px" viewBox="0 0 511.999 511.999" style="enable-background:new 0 0 511.999 511.999;" xml:space="preserve" width="512px" height="512px"><g><g>
	<g>
		<path d="M263.837,177.018V93.527c0-4.329-3.508-7.837-7.837-7.837c-4.328,0-7.837,3.508-7.837,7.837v83.492    c-9.878,3.289-17.022,12.612-17.022,23.578c0,13.703,11.151,24.851,24.859,24.851c13.707,0,24.859-11.148,24.859-24.851    C280.859,189.63,273.714,180.309,263.837,177.018z M256,209.775c-5.065,0-9.186-4.117-9.186-9.177s4.121-9.177,9.186-9.177    c5.066,0,9.186,4.117,9.186,9.177C265.186,205.657,261.066,209.775,256,209.775z" data-original="#000000" class="active-path" data-old_color="#000000" fill="#E6D9BC"/>
	</g>
</g><g>
	<g>
		<path d="M265.994,235.012h-19.99c-4.328,0-7.837,3.508-7.837,7.837c0,4.328,3.509,7.837,7.837,7.837h19.99    c4.329,0,7.837-3.509,7.837-7.837C273.831,238.52,270.323,235.012,265.994,235.012z" data-original="#000000" class="active-path" data-old_color="#000000" fill="#E6D9BC"/>
	</g>
</g><g>
	<g>
		<path d="M369.786,497.067l-19.821-74.558c5.069-1.808,8.711-6.642,8.711-12.322v-29.589c0-7.22-5.875-13.095-13.097-13.095    h-20.284l4.31-23.332c0.787-4.255-2.026-8.342-6.283-9.129c-4.252-0.789-8.344,2.026-9.129,6.283l-4.499,24.345l-43.856-43.833    c-5.424-5.423-14.252-5.423-19.679,0l-5.908,5.905c-3.062,3.06-3.063,8.023-0.002,11.083c3.06,3.062,8.023,3.062,11.083,0.002    l4.667-4.665l33.358,33.342h-66.716l5.461-5.459c3.062-3.059,3.063-8.021,0.003-11.081c-3.061-3.063-8.022-3.063-11.083-0.004    l-14.718,14.712l-32.2-174.285c-0.287-1.555,0.216-4.926,0.947-6.33l33.947-65.298v116.427c0,28.111,22.879,50.982,51.001,50.982    c28.122,0,51.001-22.871,51.001-50.982v-15.421c0-4.328-3.509-7.837-7.837-7.837c-4.329,0-7.837,3.509-7.837,7.837v15.421    c0,19.47-15.848,35.308-35.328,35.308s-35.328-15.839-35.328-35.308V89.613l27.491-52.879v26.298c0,4.328,3.509,7.837,7.837,7.837    c4.329,0,7.837-3.509,7.837-7.837v-26.3l27.491,52.88v96.455c0,4.328,3.508,7.837,7.837,7.837c4.328,0,7.837-3.509,7.837-7.837    v-66.305l33.949,65.302c0.729,1.4,1.233,4.768,0.944,6.326L320.023,309.78c-0.787,4.255,2.026,8.342,6.283,9.128    c4.26,0.788,8.344-2.026,9.129-6.282l21.87-118.386c0.928-5.002-0.106-11.906-2.451-16.411L265.755,6.442    C263.655,2.408,260.008,0,256,0c-0.001,0-0.003,0-0.004,0c-4.009,0.002-7.656,2.413-9.752,6.446l-89.097,171.379    c-2.346,4.508-3.377,11.41-2.454,16.41l32.013,173.268h-20.284c-7.222,0-13.098,5.874-13.098,13.095v29.589    c0,5.679,3.642,10.513,8.71,12.322l-19.821,74.558c-0.983,3.703-0.273,7.486,1.953,10.379c2.225,2.894,5.699,4.553,9.531,4.553    h204.606c3.832,0,7.306-1.659,9.531-4.553C370.058,504.554,370.77,500.772,369.786,497.067z M168.996,383.177h174.006v24.432    H168.996V383.177z M158.629,496.327l10.51-39.535h104.746c4.329,0,7.837-3.508,7.837-7.837c0-4.328-3.508-7.837-7.837-7.837    h-100.58l4.742-17.836h155.906l4.742,17.836h-29.039c-4.329,0-7.837,3.509-7.837,7.837c0,4.329,3.508,7.837,7.837,7.837h33.206    l10.511,39.535H158.629z" data-original="#000000" class="active-path" data-old_color="#000000" fill="#E6D9BC"/>
	</g>
</g></g> </svg>
